HIERARCHY
ROOT Pelvis
{
	OFFSET 0.000000 0.941512 0.000000
	CHANNELS 6 Xposition Yposition Zposition Zrotation Yrotation Xrotation 
	JOINT Pelvis_L_Hip
	{
		OFFSET 0.000000 0.000000 0.000000
		CHANNELS 3 Zrotation Yrotation Xrotation
		JOINT L_Hip
		{
			OFFSET 0.062321 -0.080322 -0.016990
			CHANNELS 3 Zrotation Yrotation Xrotation
			JOINT L_Knee
			{
				OFFSET 0.093051 -0.381305 -0.029784
				CHANNELS 3 Zrotation Yrotation Xrotation
				JOINT L_Ankle
				{
					OFFSET -0.010371 -0.431000 -0.033614
					CHANNELS 3 Zrotation Yrotation Xrotation
					End Site #name: L_Foot
					{
						OFFSET 0.069299 -0.038670 0.119418
					}
				}
			}
		}
	}
	JOINT Pelvis_R_Hip
	{
		OFFSET 0.000000 0.000000 0.000000
		CHANNELS 3 Zrotation Yrotation Xrotation
		JOINT R_Hip
		{
			OFFSET -0.055334 -0.094904 -0.002373
			CHANNELS 3 Zrotation Yrotation Xrotation
			JOINT R_Knee
			{
				OFFSET -0.064207 -0.384370 -0.019592
				CHANNELS 3 Zrotation Yrotation Xrotation
				JOINT R_Ankle
				{
					OFFSET 0.025418 -0.419734 -0.065953
					CHANNELS 3 Zrotation Yrotation Xrotation
					End Site #name: R_Foot
					{
						OFFSET -0.057233 -0.039888 0.132134
					}
				}
			}
		}
	}
	JOINT Pelvis_Spine1
	{
		OFFSET 0.000000 0.000000 0.000000
		CHANNELS 3 Zrotation Yrotation Xrotation
		JOINT Spine1
		{
			OFFSET -0.005562 0.124093 -0.043360
			CHANNELS 3 Zrotation Yrotation Xrotation
			JOINT Spine2
			{
				OFFSET 0.012244 0.139499 0.029894
				CHANNELS 3 Zrotation Yrotation Xrotation
				JOINT Spine3
				{
					OFFSET -0.002556 0.056561 0.009225
					CHANNELS 3 Zrotation Yrotation Xrotation
					JOINT Spine3_Neck
					{
						OFFSET 0.000000 0.000000 0.000000
						CHANNELS 3 Zrotation Yrotation Xrotation
						JOINT Neck
						{
							OFFSET -0.005205 0.217920 -0.024551
							CHANNELS 3 Zrotation Yrotation Xrotation
							End Site #name: Head
							{
								OFFSET 0.002365 0.091850 0.046637
							}
						}
					}
					JOINT Spine3_L_Collar
					{
						OFFSET 0.000000 0.000000 0.000000
						CHANNELS 3 Zrotation Yrotation Xrotation
						JOINT L_Collar
						{
							OFFSET 0.072225 0.116603 -0.009480
							CHANNELS 3 Zrotation Yrotation Xrotation
							JOINT L_Shoulder
							{
								OFFSET 0.115937 -0.058643 -0.021018
								CHANNELS 3 Zrotation Yrotation Xrotation
								JOINT L_Elbow
								{
									OFFSET 0.021994 -0.254722 -0.024492
									CHANNELS 3 Zrotation Yrotation Xrotation
									End Site #name: L_Wrist
									{
										OFFSET 0.048810 -0.240214 0.103329
									}
								}
							}
						}
					}
					JOINT Spine3_R_Collar
					{
						OFFSET 0.000000 0.000000 0.000000
						CHANNELS 3 Zrotation Yrotation Xrotation
						JOINT R_Collar
						{
							OFFSET -0.073372 0.120704 -0.024611
							CHANNELS 3 Zrotation Yrotation Xrotation
							JOINT R_Shoulder
							{
								OFFSET -0.108089 -0.054969 -0.020504
								CHANNELS 3 Zrotation Yrotation Xrotation
								JOINT R_Elbow
								{
									OFFSET -0.033684 -0.260739 0.009889
									CHANNELS 3 Zrotation Yrotation Xrotation
									End Site #name: R_Wrist
									{
										OFFSET -0.067980 -0.232763 0.118463
									}
								}
							}
						}
					}
				}
			}
		}
	}
}
MOTION
Frames: 7
Frame Time: 0.041667
0.000000 0.978422 0.000000 -4.232538 -3.383858 0.273467 0.000000 0.000000 0.000000 1.014789 -0.034224 0.179361 0.865395 -0.148935 2.519703 0.408561 7.905849 4.376684 0.000000 0.000000 0.000000 2.691148 -0.036462 -0.578807 0.996479 -0.072941 1.489748 2.364852 -4.031298 8.415002 0.000000 0.000000 0.000000 7.004763 -1.773034 1.706121 -2.991975 0.246635 -3.402504 1.498985 2.800283 2.042726 0.000000 0.000000 0.000000 -1.302781 0.654885 1.048489 0.000000 0.000000 0.000000 11.687817 0.152330 2.362276 -13.506507 1.765932 1.971306 -4.752953 -4.019643 -7.489585 0.000000 0.000000 0.000000 -19.924008 7.041061 -1.128452 19.713361 -2.662405 10.870665 4.476673 5.232634 -8.178775 
0.000095 0.978345 -0.000088 -4.216525 -3.360305 0.349243 0.000000 0.000000 0.000000 0.996094 -0.058590 0.070469 0.863380 -0.149477 2.543883 0.434316 7.929368 4.344013 0.000000 0.000000 0.000000 2.674461 -0.021025 -0.657092 0.998957 -0.073132 1.494589 2.362879 -4.055646 8.433993 0.000000 0.000000 0.000000 6.943663 -1.751533 1.650017 -3.020109 0.254158 -3.348062 1.509265 2.779246 2.039653 0.000000 0.000000 0.000000 -1.146132 0.573258 1.024328 0.000000 0.000000 0.000000 11.868318 0.087681 2.357571 -13.753381 1.805468 2.001832 -4.659130 -3.996905 -7.579407 0.000000 0.000000 0.000000 -20.018709 7.053448 -1.123539 19.787509 -2.669963 10.879163 4.488094 5.261455 -8.229315 
0.000051 0.978317 -0.000193 -4.243126 -3.353190 0.412705 0.000000 0.000000 0.000000 1.025788 -0.074793 0.011721 0.868724 -0.149176 2.516045 0.441586 7.930147 4.330467 0.000000 0.000000 0.000000 2.704399 -0.005595 -0.746632 1.012013 -0.073537 1.527490 2.349233 -4.073536 8.419293 0.000000 0.000000 0.000000 6.908675 -1.755616 1.725701 -3.027254 0.251257 -3.403022 1.534330 2.781515 2.058359 0.000000 0.000000 0.000000 -1.138763 0.570743 0.928821 0.000000 0.000000 0.000000 11.855385 0.066640 2.342013 -13.730437 1.810568 2.041668 -4.710637 -4.025360 -7.585417 0.000000 0.000000 0.000000 -20.029479 7.036610 -1.109443 19.709169 -2.652619 10.837825 4.561641 5.332970 -8.298032 
-0.000008 0.978204 -0.000345 -4.284617 -3.343593 0.485751 0.000000 0.000000 0.000000 1.069868 -0.105171 -0.102894 0.889759 -0.153176 2.575788 0.456097 7.926123 4.299515 0.000000 0.000000 0.000000 2.749634 0.015571 -0.870032 1.028638 -0.073500 1.580119 2.326719 -4.102313 8.394314 0.000000 0.000000 0.000000 6.893840 -1.776181 1.879829 -3.057619 0.243261 -3.576251 1.593408 2.793969 2.087784 0.000000 0.000000 0.000000 -1.277686 0.644459 0.835270 0.000000 0.000000 0.000000 11.851289 0.005418 2.302896 -13.703507 1.817606 2.091948 -4.791248 -4.065712 -7.582111 0.000000 0.000000 0.000000 -20.086385 7.039883 -1.104996 19.646404 -2.627247 10.764837 4.674599 5.468347 -8.474683 
-0.000284 0.978044 -0.000673 -4.351613 -3.322098 0.548280 0.000000 0.000000 0.000000 1.201193 -0.160011 -0.295392 0.841361 -0.154593 2.790546 0.484290 7.845070 4.185044 0.000000 0.000000 0.000000 2.832813 0.059571 -1.119525 1.065396 -0.063749 1.877817 2.238628 -4.169896 8.254994 0.000000 0.000000 0.000000 6.902359 -1.810681 2.090924 -3.077735 0.232102 -3.774650 1.652557 2.835244 2.119709 0.000000 0.000000 0.000000 -1.501267 0.760530 0.873714 0.000000 0.000000 0.000000 11.841002 -0.044382 2.273050 -13.632332 1.803643 2.066732 -4.900653 -4.144371 -7.664208 0.000000 0.000000 0.000000 -20.144221 7.083317 -1.136803 19.557930 -2.570563 10.596718 4.870089 5.679920 -8.706571 
-0.001164 0.977831 -0.001222 -4.410718 -3.253744 0.723635 0.000000 0.000000 0.000000 1.392110 -0.253641 -0.638231 0.734183 -0.150608 3.043824 0.511345 7.724998 4.043360 0.000000 0.000000 0.000000 2.922444 0.188646 -1.809540 1.201458 -0.041367 2.744073 2.000891 -4.371418 7.893791 0.000000 0.000000 0.000000 6.855620 -1.822417 2.225496 -3.050133 0.218469 -3.919209 1.677611 2.897906 2.094473 0.000000 0.000000 0.000000 -1.794498 0.910832 1.187448 0.000000 0.000000 0.000000 11.928716 -0.040961 2.300521 -13.511995 1.758887 1.926737 -5.130790 -4.325452 -7.877233 0.000000 0.000000 0.000000 -20.124835 7.101035 -1.166143 19.487801 -2.487514 10.340532 4.997879 5.883755 -9.029061 
-0.003218 0.977620 -0.001261 -4.375691 -3.070356 0.838738 0.000000 0.000000 0.000000 1.562153 -0.304132 -0.804158 0.654607 -0.143581 3.100122 0.464896 7.482793 3.950994 0.000000 0.000000 0.000000 3.005999 0.325361 -2.527532 1.364368 -0.011389 3.896966 1.640687 -4.708410 7.373574 0.000000 0.000000 0.000000 6.690671 -1.817214 2.440607 -3.047497 0.212186 -4.002374 1.670710 2.970306 2.097489 0.000000 0.000000 0.000000 -2.145373 1.091764 1.774717 0.000000 0.000000 0.000000 12.105894 -0.091590 2.319904 -13.314439 1.674577 1.652238 -5.254986 -4.488230 -8.227385 0.000000 0.000000 0.000000 -20.070845 7.078341 -1.181916 19.562107 -2.423850 10.112503 4.979401 6.079756 -9.575761 
